# xmcd CD database file
#
# Track frame offsets:
#	150
#	22012
#	37831
#
# Disc length: 544 seconds
#
# Revision: 0
# Processed by: cddbd v1.5.1PL0 Copyright (c) Steve Scherf et al.
# Submitted via: CDex 1.50
#
DISCID=19021e03
DTITLE=Stream Side - SSCD-001P
DYEAR=2005
DGENRE=Game
TTITLE0=萃夢想
TTITLE1=蠢々秋月 〜 Mooned Insect (Demo)
TTITLE2=プレインエイジア (Demo)
EXTD=YEAR: 2005
EXTT0=
EXTT1=
EXTT2=
PLAYORDER=
